<?xml version="1.0" encoding="UTF-8"?>
<svg xmlns="http://www.w3.org/2000/svg" xmlns:xlink="http://www.w3.org/1999/xlink" width="432pt" height="432pt" viewBox="0 0 432 432" version="1.1">
<defs>
<clipPath id="clip1">
  <path d="M 59.039063 59.039063 L 402.757813 59.039063 L 402.757813 359.558594 L 59.039063 359.558594 Z M 59.039063 59.039063 "/>
</clipPath>
</defs>
<g id="surface6">
<rect x="0" y="0" width="432" height="432" style="fill:rgb(100%,100%,100%);fill-opacity:1;stroke:none;"/>
<g clip-path="url(#clip1)" clip-rule="nonzero">
<path style="fill-rule:nonzero;fill:rgb(89.803922%,89.803922%,89.803922%);fill-opacity:1;stroke-width:0.75;stroke-linecap:round;stroke-linejoin:round;stroke:rgb(100%,100%,100%);stroke-opacity:1;stroke-miterlimit:10;" d="M 59.039063 358.558594 L 401.757813 358.558594 L 401.757813 59.039063 L 59.039063 59.039063 Z M 59.039063 358.558594 "/>
<path style="fill-rule:nonzero;fill:rgb(80.392157%,78.431373%,69.411765%);fill-opacity:1;stroke-width:0.75;stroke-linecap:round;stroke-linejoin:round;stroke:rgb(54.509804%,53.333333%,47.058824%);stroke-opacity:1;stroke-miterlimit:10;" d="M 262.734375 341.109375 L 263 340.054688 L 261.933594 339.789063 L 262.199219 338.734375 L 261.136719 338.472656 L 261.402344 337.414063 L 260.339844 337.152344 L 260.605469 336.097656 L 259.539063 335.832031 L 259.808594 334.777344 L 258.742188 334.511719 L 259.542969 331.347656 L 257.414063 330.820313 L 257.679688 329.761719 L 255.550781 329.234375 L 255.816406 328.179688 L 253.6875 327.652344 L 253.953125 326.597656 L 252.890625 326.332031 L 253.15625 325.277344 L 252.089844 325.011719 L 252.625 322.902344 L 251.558594 322.636719 L 251.292969 323.691406 L 249.164063 323.164063 L 248.101563 322.902344 L 248.367188 321.84375 L 246.238281 321.316406 L 246.503906 320.261719 L 244.375 319.734375 L 244.640625 318.679688 L 242.511719 318.152344 L 242.246094 319.207031 L 241.179688 318.941406 L 241.445313 317.886719 L 240.382813 317.621094 L 240.648438 316.566406 L 238.519531 316.039063 L 238.253906 317.09375 L 237.1875 316.828125 L 236.65625 318.941406 L 237.71875 319.203125 L 236.921875 322.371094 L 235.855469 322.105469 L 235.589844 323.160156 L 234.523438 322.898438 L 233.726563 326.0625 L 232.660156 325.800781 L 232.128906 327.910156 L 231.0625 327.644531 L 230.53125 329.753906 L 229.464844 329.492188 L 229.199219 330.546875 L 227.070313 330.019531 L 227.335938 328.964844 L 226.273438 328.699219 L 226.539063 327.644531 L 220.152344 326.058594 L 219.617188 328.171875 L 218.554688 327.90625 L 218.289063 328.960938 L 216.160156 328.433594 L 216.425781 327.378906 L 214.296875 326.851563 L 214.5625 325.796875 L 213.496094 325.53125 L 213.761719 324.476563 L 212.699219 324.210938 L 212.433594 325.265625 L 209.238281 324.476563 L 209.503906 323.421875 L 208.441406 323.15625 L 209.503906 318.933594 L 210.570313 319.199219 L 211.636719 314.976563 L 210.570313 314.714844 L 210.835938 313.660156 L 209.773438 313.394531 L 210.304688 311.285156 L 209.242188 311.019531 L 209.773438 308.910156 L 208.707031 308.644531 L 208.976563 307.589844 L 207.910156 307.324219 L 208.175781 306.269531 L 203.917969 305.214844 L 204.183594 304.160156 L 203.121094 303.894531 L 203.386719 302.839844 L 201.257813 302.3125 L 201.523438 301.257813 L 202.585938 301.519531 L 204.453125 294.132813 L 203.386719 293.871094 L 203.652344 292.816406 L 202.589844 292.550781 L 203.386719 289.386719 L 201.257813 288.855469 L 201.523438 287.800781 L 199.394531 287.273438 L 199.128906 288.328125 L 193.804688 287.007813 L 193.539063 288.066406 L 192.472656 287.800781 L 191.941406 289.910156 L 190.875 289.648438 L 190.609375 290.703125 L 186.351563 289.648438 L 186.085938 290.703125 L 185.019531 290.4375 L 184.753906 291.492188 L 183.6875 291.230469 L 183.15625 293.339844 L 182.089844 293.078125 L 181.558594 295.1875 L 182.625 295.449219 L 182.359375 296.507813 L 181.292969 296.242188 L 181.027344 297.296875 L 176.765625 296.242188 L 177.035156 295.1875 L 175.96875 294.921875 L 176.769531 291.757813 L 175.703125 291.492188 L 175.96875 290.4375 L 174.90625 290.175781 L 175.171875 289.117188 L 171.976563 288.328125 L 171.710938 289.382813 L 169.582031 288.855469 L 169.3125 289.910156 L 168.25 289.644531 L 167.984375 290.703125 L 163.722656 289.644531 L 163.457031 290.703125 L 162.394531 290.4375 L 162.125 291.492188 L 159.996094 290.964844 L 160.261719 289.910156 L 158.132813 289.382813 L 157.867188 290.4375 L 153.609375 289.382813 L 154.140625 287.273438 L 153.074219 287.007813 L 153.875 283.84375 L 154.9375 284.105469 L 155.207031 283.050781 L 157.335938 283.578125 L 157.601563 282.523438 L 158.664063 282.785156 L 159.464844 279.621094 L 160.53125 279.882813 L 162.125 273.550781 L 163.191406 273.816406 L 163.457031 272.761719 L 164.523438 273.023438 L 165.054688 270.914063 L 166.121094 271.179688 L 167.183594 266.957031 L 168.25 267.21875 L 168.515625 266.164063 L 169.582031 266.429688 L 169.847656 265.375 L 170.910156 265.636719 L 171.179688 264.582031 L 172.242188 264.847656 L 172.777344 262.734375 L 171.710938 262.472656 L 172.777344 258.25 L 171.710938 257.988281 L 173.308594 251.65625 L 172.242188 251.390625 L 172.507813 250.335938 L 173.574219 250.597656 L 174.90625 245.324219 L 173.839844 245.058594 L 174.90625 240.835938 L 173.839844 240.574219 L 174.375 238.460938 L 172.242188 237.933594 L 172.511719 236.878906 L 171.445313 236.617188 L 171.710938 235.5625 L 169.582031 235.03125 L 169.847656 233.976563 L 168.78125 233.714844 L 169.046875 232.660156 L 167.984375 232.394531 L 168.78125 229.226563 L 167.71875 228.964844 L 168.25 226.855469 L 167.183594 226.589844 L 168.25 222.367188 L 169.316406 222.632813 L 170.648438 217.355469 L 169.582031 217.09375 L 170.113281 214.980469 L 169.050781 214.71875 L 169.847656 211.550781 L 170.914063 211.816406 L 171.445313 209.703125 L 172.511719 209.96875 L 172.777344 208.914063 L 171.710938 208.648438 L 172.511719 205.484375 L 171.445313 205.21875 L 171.710938 204.164063 L 170.648438 203.898438 L 170.914063 202.84375 L 169.847656 202.582031 L 170.113281 201.527344 L 169.050781 201.261719 L 169.316406 200.207031 L 168.25 199.941406 L 168.515625 198.886719 L 167.453125 198.625 L 167.984375 196.511719 L 166.917969 196.25 L 167.183594 195.195313 L 165.054688 194.664063 L 165.320313 193.609375 L 164.257813 193.347656 L 165.585938 188.070313 L 168.78125 188.859375 L 169.050781 187.804688 L 170.113281 188.070313 L 170.648438 185.960938 L 169.582031 185.695313 L 170.113281 183.585938 L 169.050781 183.320313 L 169.847656 180.15625 L 168.785156 179.890625 L 169.050781 178.835938 L 167.984375 178.570313 L 168.25 177.515625 L 163.988281 176.460938 L 164.257813 175.40625 L 157.863281 173.824219 L 158.132813 172.765625 L 157.066406 172.503906 L 157.332031 171.449219 L 156.265625 171.183594 L 156.800781 169.074219 L 155.734375 168.808594 L 156 167.753906 L 151.738281 166.699219 L 151.472656 167.753906 L 149.34375 167.226563 L 149.078125 168.28125 L 145.878906 167.492188 L 146.148438 166.433594 L 145.082031 166.171875 L 145.347656 165.117188 L 142.152344 164.324219 L 141.886719 165.378906 L 140.820313 165.117188 L 140.554688 166.171875 L 139.488281 165.90625 L 139.222656 166.964844 L 138.15625 166.699219 L 138.421875 165.644531 L 137.359375 165.378906 L 137.890625 163.269531 L 138.957031 163.535156 L 139.488281 161.421875 L 140.554688 161.6875 L 142.417969 154.300781 L 143.484375 154.5625 L 143.75 153.507813 L 144.8125 153.769531 L 145.347656 151.660156 L 146.410156 151.925781 L 146.679688 150.867188 L 147.742188 151.132813 L 148.808594 146.910156 L 147.742188 146.648438 L 148.277344 144.535156 L 147.210938 144.273438 L 147.476563 143.21875 L 146.410156 142.953125 L 146.675781 141.898438 L 145.613281 141.632813 L 145.878906 140.578125 L 144.8125 140.316406 L 145.34375 138.203125 L 144.28125 137.941406 L 144.546875 136.886719 L 143.480469 136.621094 L 143.746094 135.566406 L 140.550781 134.773438 L 140.816406 133.71875 L 138.6875 133.191406 L 138.421875 134.246094 L 137.355469 133.984375 L 137.089844 135.039063 L 127.5 132.664063 L 127.765625 131.609375 L 126.699219 131.347656 L 126.96875 130.289063 L 125.902344 130.027344 L 126.167969 128.972656 L 125.101563 128.707031 L 125.367188 127.652344 L 122.171875 126.863281 L 122.4375 125.804688 L 121.371094 125.542969 L 121.640625 124.488281 L 120.574219 124.222656 L 121.105469 122.113281 L 120.039063 121.847656 L 120.574219 119.738281 L 119.507813 119.472656 L 120.570313 115.253906 L 119.507813 114.988281 L 120.304688 111.824219 L 119.238281 111.558594 L 119.773438 109.449219 L 120.039063 108.390625 L 121.105469 108.65625 L 121.371094 107.601563 L 122.4375 107.863281 L 122.703125 106.808594 L 123.765625 107.074219 L 124.300781 104.960938 L 125.367188 105.226563 L 125.898438 103.113281 L 126.964844 103.378906 L 127.496094 101.269531 L 128.5625 101.53125 L 129.359375 98.363281 L 128.292969 98.101563 L 128.828125 95.992188 L 127.761719 95.726563 L 128.027344 94.671875 L 126.960938 94.40625 L 127.496094 92.296875 L 126.429688 92.03125 L 126.695313 90.976563 L 124.5625 90.449219 L 125.097656 88.339844 L 124.03125 88.074219 L 124.5625 85.964844 L 125.628906 86.230469 L 125.894531 85.171875 L 126.960938 85.4375 L 127.757813 82.269531 L 126.695313 82.007813 L 126.960938 80.953125 L 124.828125 80.425781 L 125.09375 79.367188 L 124.03125 79.105469 L 124.5625 76.992188 L 123.496094 76.730469 L 123.761719 75.675781 L 122.695313 75.410156 L 123.230469 73.300781 L 124.296875 73.5625 L 124.5625 72.507813 L 125.628906 72.773438 L 125.894531 71.714844 L 126.960938 71.980469 L 127.226563 70.925781 L 128.292969 71.1875 L 128.558594 70.132813 L 129.621094 70.398438 L 129.355469 71.453125 L 130.421875 71.714844 L 129.625 74.882813 L 128.558594 74.617188 L 128.023438 76.730469 L 129.089844 76.992188 L 128.824219 78.046875 L 130.957031 78.578125 L 130.691406 79.632813 L 134.953125 80.6875 L 134.6875 81.742188 L 136.816406 82.269531 L 137.082031 81.214844 L 141.347656 82.269531 L 141.613281 81.214844 L 145.875 82.269531 L 146.140625 81.214844 L 147.207031 81.476563 L 148.273438 81.742188 L 148.003906 82.796875 L 151.203125 83.585938 L 150.9375 84.644531 L 153.066406 85.171875 L 152.800781 86.226563 L 153.867188 86.488281 L 153.332031 88.601563 L 154.398438 88.863281 L 154.132813 89.921875 L 156.265625 90.449219 L 155.996094 91.503906 L 158.128906 92.03125 L 157.863281 93.085938 L 159.992188 93.613281 L 159.726563 94.667969 L 160.792969 94.933594 L 159.992188 98.097656 L 161.058594 98.363281 L 160.792969 99.417969 L 161.859375 99.683594 L 161.59375 100.738281 L 162.65625 101 L 162.390625 102.058594 L 163.457031 102.320313 L 163.191406 103.375 L 164.257813 103.640625 L 163.988281 104.695313 L 167.1875 105.488281 L 167.453125 104.429688 L 172.78125 105.75 L 172.511719 106.804688 L 179.972656 108.652344 L 179.707031 109.707031 L 180.769531 109.972656 L 180.503906 111.027344 L 184.765625 112.082031 L 184.5 113.140625 L 185.566406 113.402344 L 185.300781 114.457031 L 186.363281 114.722656 L 186.097656 115.777344 L 187.164063 116.042969 L 186.898438 117.097656 L 187.960938 117.359375 L 187.695313 118.417969 L 188.761719 118.679688 L 188.496094 119.734375 L 190.625 120.261719 L 187.960938 130.816406 L 189.027344 131.082031 L 188.761719 132.136719 L 197.28125 134.246094 L 197.550781 133.191406 L 198.613281 133.457031 L 199.148438 131.34375 L 200.214844 131.609375 L 201.011719 128.445313 L 202.078125 128.707031 L 202.34375 127.652344 L 205.539063 128.445313 L 205.808594 127.390625 L 212.199219 128.972656 L 211.933594 130.027344 L 213 130.292969 L 212.730469 131.347656 L 213.796875 131.613281 L 213.265625 133.722656 L 214.328125 133.988281 L 214.0625 135.042969 L 215.128906 135.304688 L 215.660156 133.195313 L 216.726563 133.460938 L 216.992188 132.402344 L 218.058594 132.667969 L 218.324219 131.613281 L 220.457031 132.140625 L 219.921875 134.25 L 226.316406 135.835938 L 226.582031 134.78125 L 227.648438 135.042969 L 227.914063 133.988281 L 226.847656 133.726563 L 227.113281 132.667969 L 229.246094 133.199219 L 229.777344 131.085938 L 230.042969 130.03125 L 238.566406 132.144531 L 238.300781 133.199219 L 239.367188 133.464844 L 239.097656 134.519531 L 240.164063 134.785156 L 239.898438 135.839844 L 240.964844 136.101563 L 240.164063 139.269531 L 241.230469 139.53125 L 240.695313 141.644531 L 241.761719 141.90625 L 240.160156 148.238281 L 241.226563 148.503906 L 240.960938 149.558594 L 242.023438 149.824219 L 241.757813 150.878906 L 242.824219 151.140625 L 242.558594 152.199219 L 243.621094 152.460938 L 243.355469 153.515625 L 245.484375 154.046875 L 244.953125 156.15625 L 246.019531 156.421875 L 245.75 157.476563 L 246.816406 157.738281 L 246.550781 158.796875 L 247.617188 159.058594 L 247.347656 160.113281 L 248.414063 160.378906 L 248.148438 161.433594 L 258.800781 164.074219 L 258.53125 165.132813 L 261.726563 165.921875 L 261.460938 166.980469 L 262.527344 167.242188 L 263.058594 165.132813 L 264.125 165.398438 L 264.390625 164.339844 L 265.457031 164.605469 L 265.722656 163.550781 L 268.917969 164.34375 L 269.1875 163.289063 L 272.382813 164.082031 L 273.445313 164.34375 L 272.914063 166.457031 L 273.976563 166.71875 L 273.445313 168.828125 L 274.511719 169.09375 L 273.710938 172.261719 L 274.773438 172.523438 L 274.242188 174.632813 L 275.308594 174.898438 L 275.039063 175.953125 L 276.105469 176.21875 L 275.839844 177.273438 L 282.230469 178.859375 L 282.496094 177.804688 L 283.5625 178.066406 L 283.828125 177.011719 L 288.089844 178.070313 L 288.355469 177.015625 L 293.679688 178.335938 L 293.949219 177.28125 L 295.011719 177.546875 L 295.28125 176.492188 L 299.539063 177.546875 L 299.804688 176.492188 L 303 177.285156 L 304.070313 173.066406 L 304.335938 172.007813 L 306.464844 172.539063 L 306.199219 173.59375 L 308.328125 174.121094 L 308.0625 175.175781 L 311.257813 175.96875 L 310.992188 177.027344 L 313.121094 177.554688 L 312.855469 178.609375 L 313.917969 178.875 L 313.652344 179.929688 L 314.71875 180.195313 L 314.449219 181.25 L 315.515625 181.511719 L 315.25 182.570313 L 316.3125 182.832031 L 315.511719 186 L 312.84375 196.550781 L 313.910156 196.816406 L 313.375 198.925781 L 314.441406 199.191406 L 313.90625 201.300781 L 314.972656 201.566406 L 314.707031 202.621094 L 323.226563 204.734375 L 322.957031 205.789063 L 324.023438 206.054688 L 323.488281 208.164063 L 324.554688 208.429688 L 326.683594 208.957031 L 326.417969 210.015625 L 327.484375 210.277344 L 326.683594 213.445313 L 327.746094 213.707031 L 327.480469 214.761719 L 330.675781 215.558594 L 330.410156 216.613281 L 331.472656 216.875 L 330.9375 218.988281 L 332.003906 219.25 L 331.738281 220.304688 L 332.800781 220.570313 L 332.535156 221.625 L 333.601563 221.890625 L 333.332031 222.945313 L 334.398438 223.210938 L 333.863281 225.320313 L 334.929688 225.585938 L 334.128906 228.75 L 335.195313 229.015625 L 334.125 233.234375 L 335.191406 233.5 L 333.855469 238.777344 L 333.054688 241.941406 L 334.121094 242.207031 L 333.320313 245.371094 L 334.386719 245.636719 L 334.117188 246.691406 L 335.183594 246.957031 L 334.914063 248.011719 L 335.980469 248.277344 L 335.445313 250.386719 L 336.511719 250.652344 L 335.976563 252.761719 L 337.042969 253.023438 L 336.507813 255.136719 L 337.574219 255.398438 L 336.507813 259.621094 L 337.570313 259.886719 L 337.304688 260.941406 L 338.367188 261.203125 L 338.101563 262.261719 L 339.167969 262.523438 L 338.898438 263.578125 L 339.964844 263.84375 L 339.699219 264.898438 L 340.761719 265.164063 L 340.496094 266.21875 L 341.558594 266.484375 L 339.691406 273.871094 L 340.757813 274.132813 L 337.820313 285.742188 L 338.886719 286.003906 L 338.351563 288.117188 L 337.289063 287.851563 L 336.753906 289.960938 L 335.6875 289.695313 L 335.15625 291.808594 L 336.21875 292.070313 L 334.621094 298.402344 L 335.683594 298.667969 L 335.148438 300.777344 L 336.214844 301.042969 L 335.414063 304.207031 L 336.480469 304.472656 L 335.679688 307.636719 L 336.742188 307.902344 L 335.941406 311.066406 L 337.007813 311.332031 L 336.742188 312.386719 L 337.804688 312.652344 L 337.539063 313.707031 L 338.601563 313.972656 L 338.070313 316.082031 L 337.269531 319.246094 L 336.203125 318.984375 L 335.402344 322.148438 L 334.339844 321.882813 L 334.070313 322.9375 L 333.007813 322.675781 L 331.941406 326.894531 L 330.875 326.628906 L 330.609375 327.6875 L 329.542969 327.421875 L 329.011719 329.53125 L 327.945313 329.265625 L 327.144531 332.433594 L 326.082031 332.167969 L 325.015625 336.390625 L 326.078125 336.652344 L 325.277344 339.820313 L 324.214844 339.554688 L 323.679688 341.664063 L 322.617188 341.398438 L 321.28125 346.675781 L 320.21875 346.410156 L 319.953125 347.464844 L 314.628906 346.144531 L 314.363281 347.199219 L 310.105469 346.140625 L 309.839844 347.199219 L 308.773438 346.933594 L 309.039063 345.878906 L 307.976563 345.613281 L 308.242188 344.558594 L 307.179688 344.292969 L 307.710938 342.183594 L 306.648438 341.917969 L 306.914063 340.863281 L 305.847656 340.601563 L 305.582031 341.65625 L 304.519531 341.390625 L 304.25 342.445313 L 303.1875 342.179688 L 303.453125 341.125 L 301.324219 340.597656 L 301.058594 341.652344 L 297.863281 340.859375 L 297.597656 341.914063 L 296.535156 341.652344 L 296.265625 342.707031 L 292.007813 341.648438 L 292.277344 340.59375 L 291.210938 340.328125 L 291.746094 338.21875 L 290.679688 337.953125 L 290.414063 339.011719 L 288.285156 338.480469 L 288.550781 337.425781 L 287.488281 337.160156 L 287.753906 336.105469 L 286.6875 335.84375 L 287.753906 331.621094 L 286.691406 331.355469 L 287.222656 329.246094 L 286.160156 328.984375 L 286.960938 325.816406 L 285.894531 325.550781 L 286.695313 322.386719 L 285.628906 322.121094 L 285.894531 321.066406 L 284.832031 320.804688 L 285.097656 319.75 L 284.035156 319.484375 L 283.765625 320.539063 L 282.703125 320.273438 L 282.4375 321.328125 L 281.371094 321.066406 L 280.839844 323.175781 L 279.773438 322.910156 L 278.972656 326.078125 L 277.910156 325.8125 L 277.375 327.921875 L 276.3125 327.660156 L 276.046875 328.714844 L 274.980469 328.449219 L 274.449219 330.5625 L 273.382813 330.296875 L 273.117188 331.351563 L 272.050781 331.085938 L 271.785156 332.144531 L 270.71875 331.878906 L 270.453125 332.933594 L 269.390625 332.667969 L 269.121094 333.726563 L 268.058594 333.460938 L 267.523438 335.570313 L 266.460938 335.308594 L 265.660156 338.472656 L 264.597656 338.207031 L 263.796875 341.375 Z M 262.734375 341.109375 "/>
<path style="fill:none;stroke-width:0.75;stroke-linecap:round;stroke-linejoin:round;stroke:rgb(0%,0%,100%);stroke-opacity:1;stroke-miterlimit:10;" d="M 305.988281 285.03125 L 307.464844 285.03125 L 308.851563 285.679688 L 309.867188 286.789063 L 316.054688 290.03125 L 318.824219 290.863281 L 323.535156 292.714844 L 325.011719 294.105469 L 325.566406 294.199219 L 328.890625 298.554688 L 330.921875 302.632813 L 332.585938 305.503906 L 333.046875 307.820313 L 334.066406 312.457031 L 335.449219 314.496094 L 338.496094 316.71875 "/>
<path style="fill:none;stroke-width:0.75;stroke-linecap:round;stroke-linejoin:round;stroke:rgb(0%,0%,100%);stroke-opacity:1;stroke-miterlimit:10;" d="M 268.40625 272.539063 L 270.34375 273.277344 L 271.636719 273.277344 L 278.929688 270.304688 L 281.328125 269.84375 L 282.621094 270.304688 L 290.378906 269.746094 L 291.488281 270.390625 L 291.855469 271.597656 L 292.316406 271.96875 L 292.964844 274.65625 L 294.90625 277.527344 L 294.90625 277.898438 L 296.570313 281.234375 L 298.785156 283.367188 L 304.050781 284.847656 L 305.988281 285.03125 "/>
<path style="fill:none;stroke-width:0.75;stroke-linecap:round;stroke-linejoin:round;stroke:rgb(0%,0%,100%);stroke-opacity:1;stroke-miterlimit:10;" d="M 264.148438 254.371094 L 264.796875 259.378906 "/>
<path style="fill:none;stroke-width:0.75;stroke-linecap:round;stroke-linejoin:round;stroke:rgb(0%,0%,100%);stroke-opacity:1;stroke-miterlimit:10;" d="M 268.21875 269.941406 L 268.21875 270.777344 L 268.40625 271.054688 L 268.40625 272.539063 "/>
<path style="fill:none;stroke-width:0.75;stroke-linecap:round;stroke-linejoin:round;stroke:rgb(0%,0%,100%);stroke-opacity:1;stroke-miterlimit:10;" d="M 264.796875 259.378906 L 265.152344 259.882813 L 267.414063 263.269531 L 268.394531 269.527344 L 268.21875 269.941406 "/>
<path style="fill:none;stroke-width:0.75;stroke-linecap:round;stroke-linejoin:round;stroke:rgb(0%,0%,100%);stroke-opacity:1;stroke-miterlimit:10;" d="M 245.472656 225.1875 L 245.828125 225.46875 L 252.144531 227.558594 L 254.75 231.871094 L 256.363281 240.121094 L 264.054688 254.175781 L 264.148438 254.371094 "/>
<path style="fill:none;stroke-width:0.75;stroke-linecap:round;stroke-linejoin:round;stroke:rgb(0%,0%,100%);stroke-opacity:1;stroke-miterlimit:10;" d="M 210.257813 187.117188 L 212.660156 187.394531 L 213.863281 188.503906 L 214.785156 190.171875 L 214.789063 191.191406 L 215.992188 193.878906 L 216.640625 196.9375 L 219.414063 203.980469 L 220.15625 205.183594 L 221.265625 206.015625 L 222.191406 208.054688 L 222.375 209.074219 L 223.207031 209.910156 L 224.039063 212.316406 L 226.722656 216.117188 L 229.863281 218.894531 L 235.683594 221.484375 L 242.242188 223.707031 L 245.472656 225.1875 "/>
<path style="fill:none;stroke-width:0.75;stroke-linecap:round;stroke-linejoin:round;stroke:rgb(0%,0%,100%);stroke-opacity:1;stroke-miterlimit:10;" d="M 134.523438 106.175781 L 135.914063 107.9375 L 138.5 109.695313 L 150.976563 113.667969 L 154.304688 115.054688 L 156.0625 116.347656 L 161.058594 123.667969 L 163.554688 126.261719 L 167.53125 128.015625 L 170.949219 129.960938 L 172.058594 130.886719 L 171.972656 135.058594 L 172.433594 137.1875 L 176.414063 145.621094 L 178.449219 148.027344 L 181.40625 149.972656 L 182.886719 151.546875 L 189.546875 160.4375 L 193.800781 167.570313 L 198.515625 173.5 L 201.289063 176.1875 L 203.136719 176.925781 L 205.539063 177.386719 L 206.558594 177.941406 L 207.390625 178.960938 L 208.410156 184.523438 L 209.332031 185.632813 L 210.257813 187.117188 "/>
<path style="fill:none;stroke-width:0.75;stroke-linecap:round;stroke-linejoin:round;stroke:rgb(0%,0%,100%);stroke-opacity:1;stroke-miterlimit:10;" d="M 288.210938 188.546875 L 288.953125 190.398438 L 289.601563 197.816406 L 291.265625 201.242188 L 293.761719 204.671875 L 293.949219 205.414063 L 294.875 210.417969 L 294.875 213.570313 L 294.507813 216.074219 L 294.601563 220.242188 L 295.0625 220.707031 L 297.464844 225.804688 L 297.558594 227.9375 L 296.914063 231.738281 L 296.453125 233.589844 L 296.367188 240.449219 L 296.640625 240.636719 L 296.828125 241.285156 L 298.585938 247.125 L 299.601563 248.699219 L 300.15625 249.070313 L 300.15625 249.4375 L 301.355469 252.3125 L 301.914063 256.484375 L 302.375 258.152344 L 303.855469 260.191406 L 304.871094 262.230469 L 306.625 264.453125 L 306.71875 265.65625 L 306.074219 268.066406 L 305.058594 269.738281 L 305.707031 270.941406 L 306.445313 273.628906 L 305.15625 280.394531 L 305.25 282.804688 L 305.988281 284.195313 L 305.988281 285.03125 "/>
<path style="fill:none;stroke-width:0.75;stroke-linecap:round;stroke-linejoin:round;stroke:rgb(0%,0%,100%);stroke-opacity:1;stroke-miterlimit:10;" d="M 178.980469 220.421875 L 179.90625 222.367188 L 182.125 225.144531 L 182.125 228.296875 L 182.589844 229.78125 L 184.621094 230.335938 L 188.039063 232.554688 L 189.058594 232.460938 L 191.363281 229.679688 L 191.175781 229.214844 L 191.453125 229.121094 L 191.546875 228.382813 L 192.746094 226.0625 L 193.296875 223.746094 L 193.476563 217.8125 L 193.84375 214.195313 L 193.835938 205.761719 L 194.109375 202.796875 L 194.753906 198.808594 L 195.675781 197.140625 L 197.519531 195.097656 L 202.78125 192.960938 L 203.613281 192.128906 L 204.628906 190.273438 L 205.828125 188.882813 L 207.582031 187.953125 L 210.257813 187.117188 "/>
<path style="fill:none;stroke-width:0.75;stroke-linecap:round;stroke-linejoin:round;stroke:rgb(0%,0%,100%);stroke-opacity:1;stroke-miterlimit:10;" d="M 199.132813 245.800781 L 199.042969 249.417969 L 198.585938 251.085938 L 198.035156 254.515625 L 192.960938 261.101563 L 191.117188 264.71875 L 190.472656 266.574219 L 190.011719 269.261719 L 190.382813 270.1875 L 191.675781 271.855469 L 195.28125 275.003906 L 196.574219 275.558594 L 201.835938 274.8125 L 202.667969 275.554688 L 202.855469 276.851563 L 203.222656 276.941406 L 203.5 278.332031 L 204.425781 279.539063 L 206.734375 280.738281 L 207.195313 281.574219 L 208.03125 284.910156 L 208.863281 285.558594 L 210.617188 286.113281 L 213.109375 286.296875 L 214.402344 287.6875 L 214.3125 290.375 L 215.515625 292.042969 L 216.625 292.875 L 220.132813 293.335938 L 221.703125 292.40625 L 223.914063 290.460938 L 225.667969 289.625 L 232.316406 288.691406 L 236.472656 291.5625 L 237.488281 291.375 L 238.503906 289.519531 L 238.871094 287.480469 L 239.515625 286.460938 L 240.808594 285.347656 L 243.113281 285.160156 L 245.421875 285.992188 L 249.855469 286.917969 L 251.332031 286.082031 L 253.175781 283.113281 L 253.636719 281.351563 L 254.746094 278.847656 L 256.957031 276.714844 L 258.804688 275.878906 L 266.835938 273.652344 L 268.40625 272.539063 "/>
</g>
</g>
</svg>
