<?xml version="1.0" encoding="UTF-8"?>
<svg xmlns="http://www.w3.org/2000/svg" xmlns:xlink="http://www.w3.org/1999/xlink" width="432pt" height="432pt" viewBox="0 0 432 432" version="1.1">
<defs>
<clipPath id="clip1">
  <path d="M 59.039062 59.039062 L 402 59.039062 L 402 359 L 59.039062 359 Z "/>
</clipPath>
<clipPath id="clip2">
  <path d="M 59.039062 59.039062 L 402.757812 59.039062 L 402.757812 359 L 59.039062 359 Z "/>
</clipPath>
</defs>
<g id="surface1">
<rect x="0" y="0" width="432" height="432" style="fill:rgb(100%,100%,100%);fill-opacity:1;stroke:none;"/>
<g clip-path="url(#clip1)" clip-rule="nonzero">
<path style=" stroke:none;fill-rule:nonzero;fill:rgb(89.803922%,89.803922%,89.803922%);fill-opacity:1;" d="M 59.039062 358.558594 L 401.757812 358.558594 L 401.757812 59.039062 L 59.039062 59.039062 Z "/>
</g>
<g clip-path="url(#clip2)" clip-rule="nonzero">
<path style="fill:none;stroke-width:0.75;stroke-linecap:round;stroke-linejoin:round;stroke:rgb(100%,100%,100%);stroke-opacity:1;stroke-miterlimit:10;" d="M 59.039062 358.558594 L 401.757812 358.558594 L 401.757812 59.039062 L 59.039062 59.039062 Z "/>
</g>
<path style="fill-rule:nonzero;fill:rgb(80.392157%,78.431373%,69.411765%);fill-opacity:1;stroke-width:0.75;stroke-linecap:round;stroke-linejoin:round;stroke:rgb(54.509804%,53.333333%,47.058824%);stroke-opacity:1;stroke-miterlimit:10;" d="M 283.761719 339.746094 L 284.246094 337.828125 L 283.28125 337.585938 L 283.765625 335.667969 L 280.863281 334.949219 L 282.074219 330.152344 L 281.105469 329.910156 L 281.347656 328.953125 L 280.382812 328.710938 L 280.625 327.753906 L 279.65625 327.511719 L 279.898438 326.554688 L 278.933594 326.3125 L 279.175781 325.355469 L 278.207031 325.113281 L 278.449219 324.15625 L 277.480469 323.914062 L 277.722656 322.957031 L 276.757812 322.714844 L 277 321.753906 L 276.03125 321.515625 L 276.515625 319.597656 L 275.546875 319.355469 L 275.792969 318.398438 L 272.886719 317.675781 L 273.128906 316.71875 L 271.195312 316.238281 L 270.953125 317.195312 L 269.984375 316.957031 L 269.019531 316.714844 L 267.804688 321.511719 L 266.835938 321.269531 L 266.59375 322.230469 L 261.757812 321.027344 L 261.515625 321.988281 L 257.644531 321.027344 L 257.402344 321.984375 L 256.433594 321.746094 L 256.675781 320.785156 L 255.707031 320.546875 L 255.953125 319.585938 L 254.984375 319.34375 L 255.46875 317.425781 L 254.5 317.1875 L 254.742188 316.226562 L 253.777344 315.988281 L 253.53125 316.945312 L 252.566406 316.707031 L 252.324219 317.664062 L 251.355469 317.425781 L 251.597656 316.464844 L 249.664062 315.984375 L 249.421875 316.945312 L 246.515625 316.222656 L 246.273438 317.183594 L 245.308594 316.941406 L 245.066406 317.902344 L 241.195312 316.941406 L 241.4375 315.980469 L 240.46875 315.742188 L 240.953125 313.824219 L 239.984375 313.582031 L 239.742188 314.542969 L 237.808594 314.0625 L 238.050781 313.101562 L 237.082031 312.863281 L 237.324219 311.902344 L 236.355469 311.664062 L 237.328125 307.828125 L 236.359375 307.585938 L 236.84375 305.667969 L 235.875 305.425781 L 236.601562 302.550781 L 235.636719 302.308594 L 236.363281 299.433594 L 235.394531 299.191406 L 235.636719 298.234375 L 234.667969 297.992188 L 234.910156 297.035156 L 233.945312 296.792969 L 233.703125 297.753906 L 232.734375 297.511719 L 232.492188 298.472656 L 231.523438 298.230469 L 231.039062 300.148438 L 230.070312 299.910156 L 229.34375 302.785156 L 228.375 302.546875 L 227.890625 304.464844 L 226.925781 304.226562 L 226.683594 305.183594 L 225.714844 304.945312 L 225.230469 306.863281 L 224.261719 306.621094 L 224.019531 307.582031 L 223.050781 307.339844 L 222.808594 308.300781 L 221.839844 308.058594 L 221.597656 309.019531 L 220.632812 308.777344 L 220.390625 309.738281 L 219.421875 309.496094 L 218.9375 311.417969 L 217.96875 311.175781 L 217.242188 314.054688 L 216.273438 313.8125 L 215.546875 316.691406 L 214.582031 316.449219 L 214.824219 315.492188 L 213.855469 315.25 L 214.097656 314.292969 L 213.128906 314.050781 L 213.371094 313.09375 L 212.402344 312.851562 L 212.644531 311.894531 L 211.679688 311.652344 L 211.921875 310.695312 L 210.953125 310.453125 L 211.679688 307.578125 L 209.746094 307.097656 L 209.988281 306.136719 L 208.050781 305.65625 L 208.292969 304.699219 L 206.359375 304.21875 L 206.601562 303.257812 L 205.632812 303.019531 L 205.875 302.058594 L 204.90625 301.820312 L 205.390625 299.902344 L 204.421875 299.660156 L 204.179688 300.621094 L 202.246094 300.140625 L 201.277344 299.898438 L 201.519531 298.941406 L 199.585938 298.460938 L 199.828125 297.5 L 197.890625 297.019531 L 198.132812 296.0625 L 196.199219 295.582031 L 195.957031 296.539062 L 194.988281 296.300781 L 195.230469 295.339844 L 194.261719 295.101562 L 194.503906 294.140625 L 192.570312 293.660156 L 192.328125 294.621094 L 191.359375 294.378906 L 190.875 296.300781 L 191.84375 296.539062 L 191.117188 299.417969 L 190.148438 299.175781 L 189.90625 300.136719 L 188.9375 299.894531 L 188.210938 302.773438 L 187.242188 302.535156 L 186.757812 304.453125 L 185.792969 304.210938 L 185.308594 306.128906 L 184.339844 305.890625 L 184.097656 306.847656 L 182.160156 306.371094 L 182.402344 305.410156 L 181.4375 305.171875 L 181.679688 304.210938 L 175.871094 302.769531 L 175.386719 304.6875 L 174.417969 304.449219 L 174.175781 305.410156 L 172.242188 304.929688 L 172.484375 303.96875 L 170.546875 303.488281 L 170.789062 302.53125 L 169.824219 302.289062 L 170.066406 301.332031 L 169.097656 301.089844 L 168.855469 302.050781 L 165.953125 301.332031 L 166.195312 300.371094 L 165.226562 300.132812 L 166.195312 296.292969 L 167.164062 296.535156 L 168.128906 292.695312 L 167.164062 292.457031 L 167.40625 291.496094 L 166.4375 291.257812 L 166.921875 289.339844 L 165.953125 289.097656 L 166.4375 287.179688 L 165.46875 286.941406 L 165.710938 285.980469 L 164.746094 285.742188 L 164.984375 284.78125 L 161.113281 283.824219 L 161.355469 282.863281 L 160.390625 282.625 L 160.632812 281.664062 L 158.695312 281.183594 L 158.9375 280.226562 L 159.90625 280.464844 L 161.601562 273.75 L 160.632812 273.511719 L 160.875 272.550781 L 159.90625 272.3125 L 160.632812 269.433594 L 158.695312 268.953125 L 158.9375 267.992188 L 157.003906 267.515625 L 156.761719 268.472656 L 151.921875 267.273438 L 151.679688 268.234375 L 150.710938 267.992188 L 150.226562 269.910156 L 149.257812 269.671875 L 149.015625 270.632812 L 145.144531 269.671875 L 144.902344 270.628906 L 143.933594 270.390625 L 143.695312 271.351562 L 142.726562 271.109375 L 142.242188 273.027344 L 141.273438 272.789062 L 140.789062 274.707031 L 141.757812 274.949219 L 141.515625 275.90625 L 140.546875 275.667969 L 140.304688 276.625 L 136.433594 275.667969 L 136.675781 274.707031 L 135.707031 274.46875 L 136.433594 271.589844 L 135.464844 271.351562 L 135.707031 270.390625 L 134.738281 270.152344 L 134.980469 269.191406 L 132.078125 268.472656 L 131.835938 269.429688 L 129.898438 268.953125 L 129.65625 269.910156 L 128.691406 269.671875 L 128.449219 270.628906 L 124.578125 269.671875 L 124.335938 270.628906 L 123.367188 270.390625 L 123.125 271.347656 L 121.1875 270.871094 L 121.429688 269.910156 L 119.496094 269.429688 L 119.253906 270.390625 L 115.378906 269.429688 L 115.863281 267.511719 L 114.898438 267.273438 L 115.621094 264.394531 L 116.589844 264.632812 L 116.832031 263.675781 L 118.769531 264.15625 L 119.011719 263.195312 L 119.976562 263.433594 L 120.703125 260.558594 L 121.671875 260.796875 L 123.125 255.042969 L 124.09375 255.28125 L 124.335938 254.320312 L 125.300781 254.5625 L 125.785156 252.644531 L 126.753906 252.882812 L 127.722656 249.046875 L 128.691406 249.285156 L 128.933594 248.328125 L 129.902344 248.566406 L 130.140625 247.605469 L 131.109375 247.847656 L 131.351562 246.886719 L 132.320312 247.128906 L 132.804688 245.207031 L 131.835938 244.96875 L 132.804688 241.132812 L 131.835938 240.890625 L 133.289062 235.136719 L 132.320312 234.894531 L 132.5625 233.9375 L 133.53125 234.175781 L 134.742188 229.378906 L 133.773438 229.140625 L 134.742188 225.304688 L 133.773438 225.0625 L 134.257812 223.144531 L 132.320312 222.664062 L 132.5625 221.707031 L 131.59375 221.464844 L 131.835938 220.507812 L 129.902344 220.027344 L 130.144531 219.066406 L 129.175781 218.828125 L 129.417969 217.867188 L 128.449219 217.628906 L 129.175781 214.75 L 128.207031 214.511719 L 128.691406 212.59375 L 127.722656 212.351562 L 128.691406 208.515625 L 129.660156 208.753906 L 130.871094 203.957031 L 129.902344 203.71875 L 130.386719 201.800781 L 129.417969 201.558594 L 130.144531 198.683594 L 131.113281 198.921875 L 131.597656 197.003906 L 132.5625 197.242188 L 132.804688 196.285156 L 131.835938 196.042969 L 132.5625 193.167969 L 131.597656 192.925781 L 131.839844 191.96875 L 130.871094 191.726562 L 131.113281 190.769531 L 130.144531 190.527344 L 130.386719 189.570312 L 129.417969 189.328125 L 129.660156 188.371094 L 128.691406 188.128906 L 128.933594 187.171875 L 127.964844 186.929688 L 128.449219 185.011719 L 127.480469 184.773438 L 127.722656 183.8125 L 125.785156 183.332031 L 126.027344 182.375 L 125.058594 182.132812 L 126.269531 177.335938 L 129.175781 178.058594 L 129.417969 177.097656 L 130.386719 177.335938 L 130.871094 175.417969 L 129.902344 175.179688 L 130.386719 173.261719 L 129.417969 173.019531 L 130.144531 170.144531 L 129.175781 169.902344 L 129.417969 168.945312 L 128.449219 168.703125 L 128.691406 167.746094 L 124.816406 166.785156 L 125.058594 165.824219 L 119.25 164.386719 L 119.492188 163.425781 L 118.523438 163.1875 L 118.765625 162.226562 L 117.796875 161.988281 L 118.28125 160.070312 L 117.3125 159.828125 L 117.554688 158.871094 L 113.683594 157.910156 L 113.441406 158.871094 L 111.503906 158.390625 L 111.261719 159.351562 L 108.355469 158.632812 L 108.597656 157.671875 L 107.628906 157.433594 L 107.871094 156.472656 L 104.964844 155.753906 L 104.722656 156.714844 L 103.753906 156.472656 L 103.511719 157.433594 L 102.546875 157.191406 L 102.304688 158.152344 L 101.335938 157.914062 L 101.578125 156.953125 L 100.609375 156.714844 L 101.09375 154.792969 L 102.0625 155.035156 L 102.542969 153.117188 L 103.511719 153.355469 L 105.207031 146.640625 L 106.175781 146.878906 L 106.417969 145.921875 L 107.386719 146.160156 L 107.871094 144.242188 L 108.839844 144.480469 L 109.082031 143.523438 L 110.050781 143.761719 L 111.019531 139.925781 L 110.050781 139.683594 L 110.535156 137.765625 L 109.566406 137.527344 L 109.808594 136.566406 L 108.839844 136.328125 L 109.082031 135.367188 L 108.113281 135.128906 L 108.355469 134.167969 L 107.386719 133.929688 L 107.871094 132.011719 L 106.902344 131.769531 L 107.144531 130.8125 L 106.175781 130.570312 L 106.417969 129.613281 L 103.511719 128.890625 L 103.753906 127.933594 L 101.816406 127.453125 L 101.574219 128.414062 L 100.605469 128.171875 L 100.363281 129.132812 L 91.648438 126.976562 L 91.890625 126.015625 L 90.921875 125.777344 L 91.164062 124.816406 L 90.195312 124.578125 L 90.4375 123.617188 L 89.46875 123.378906 L 89.710938 122.417969 L 86.804688 121.699219 L 87.046875 120.738281 L 86.078125 120.5 L 86.320312 119.539062 L 85.351562 119.300781 L 85.835938 117.382812 L 84.867188 117.144531 L 85.351562 115.222656 L 84.382812 114.984375 L 85.347656 111.148438 L 84.378906 110.90625 L 85.105469 108.027344 L 84.136719 107.789062 L 84.621094 105.871094 L 84.863281 104.910156 L 85.832031 105.152344 L 86.074219 104.191406 L 87.042969 104.429688 L 87.285156 103.472656 L 88.253906 103.710938 L 88.738281 101.792969 L 89.707031 102.03125 L 90.191406 100.113281 L 91.160156 100.351562 L 91.644531 98.433594 L 92.613281 98.675781 L 93.335938 95.796875 L 92.371094 95.554688 L 92.851562 93.636719 L 91.882812 93.398438 L 92.125 92.4375 L 91.15625 92.199219 L 91.640625 90.28125 L 90.671875 90.039062 L 90.914062 89.082031 L 88.976562 88.601562 L 89.460938 86.683594 L 88.492188 86.441406 L 88.976562 84.523438 L 89.945312 84.765625 L 90.1875 83.804688 L 91.15625 84.042969 L 91.882812 81.167969 L 90.914062 80.925781 L 91.15625 79.96875 L 89.21875 79.488281 L 89.460938 78.527344 L 88.492188 78.289062 L 88.976562 76.371094 L 88.007812 76.128906 L 88.25 75.171875 L 87.28125 74.929688 L 87.765625 73.011719 L 88.734375 73.25 L 88.976562 72.292969 L 89.945312 72.53125 L 90.1875 71.574219 L 91.15625 71.8125 L 91.398438 70.851562 L 92.367188 71.09375 L 92.609375 70.132812 L 93.578125 70.371094 L 93.335938 71.332031 L 94.304688 71.570312 L 93.578125 74.449219 L 92.609375 74.210938 L 92.125 76.128906 L 93.09375 76.367188 L 92.851562 77.328125 L 94.789062 77.808594 L 94.546875 78.765625 L 98.421875 79.726562 L 98.179688 80.6875 L 100.117188 81.164062 L 100.359375 80.207031 L 104.234375 81.164062 L 104.476562 80.207031 L 108.351562 81.164062 L 108.59375 80.203125 L 109.5625 80.445312 L 110.53125 80.683594 L 110.289062 81.644531 L 113.195312 82.363281 L 112.953125 83.324219 L 114.890625 83.800781 L 114.648438 84.761719 L 115.617188 85 L 115.132812 86.921875 L 116.101562 87.160156 L 115.859375 88.121094 L 117.796875 88.597656 L 117.554688 89.558594 L 119.492188 90.039062 L 119.25 90.996094 L 121.183594 91.476562 L 120.941406 92.4375 L 121.910156 92.675781 L 121.1875 95.554688 L 122.152344 95.792969 L 121.910156 96.753906 L 122.878906 96.992188 L 122.636719 97.953125 L 123.605469 98.191406 L 123.363281 99.152344 L 124.332031 99.390625 L 124.089844 100.351562 L 125.058594 100.589844 L 124.816406 101.550781 L 127.722656 102.269531 L 127.964844 101.308594 L 132.808594 102.507812 L 132.566406 103.46875 L 139.347656 105.148438 L 139.105469 106.105469 L 140.074219 106.347656 L 139.832031 107.304688 L 143.703125 108.265625 L 143.460938 109.226562 L 144.429688 109.464844 L 144.1875 110.425781 L 145.15625 110.664062 L 144.914062 111.625 L 145.882812 111.863281 L 145.640625 112.824219 L 146.609375 113.0625 L 146.367188 114.023438 L 147.335938 114.261719 L 147.09375 115.222656 L 149.03125 115.703125 L 146.609375 125.292969 L 147.578125 125.535156 L 147.335938 126.492188 L 155.082031 128.414062 L 155.324219 127.453125 L 156.292969 127.695312 L 156.777344 125.777344 L 157.746094 126.015625 L 158.472656 123.136719 L 159.441406 123.378906 L 159.683594 122.417969 L 162.589844 123.136719 L 162.832031 122.179688 L 168.644531 123.617188 L 168.402344 124.578125 L 169.371094 124.816406 L 169.125 125.777344 L 170.09375 126.015625 L 169.609375 127.9375 L 170.578125 128.175781 L 170.335938 129.136719 L 171.304688 129.375 L 171.789062 127.457031 L 172.757812 127.695312 L 173 126.738281 L 173.96875 126.976562 L 174.210938 126.019531 L 176.148438 126.496094 L 175.664062 128.417969 L 181.472656 129.855469 L 181.714844 128.898438 L 182.683594 129.136719 L 182.925781 128.179688 L 181.960938 127.9375 L 182.203125 126.980469 L 184.136719 127.457031 L 184.621094 125.539062 L 184.867188 124.582031 L 192.613281 126.5 L 192.371094 127.460938 L 193.339844 127.699219 L 193.097656 128.660156 L 194.066406 128.898438 L 193.824219 129.859375 L 194.792969 130.101562 L 194.0625 132.976562 L 195.03125 133.21875 L 194.546875 135.136719 L 195.515625 135.375 L 194.0625 141.132812 L 195.03125 141.371094 L 194.789062 142.332031 L 195.757812 142.570312 L 195.515625 143.53125 L 196.480469 143.769531 L 196.238281 144.730469 L 197.207031 144.96875 L 196.964844 145.929688 L 198.902344 146.410156 L 198.417969 148.328125 L 199.386719 148.566406 L 199.144531 149.527344 L 200.113281 149.765625 L 199.871094 150.726562 L 200.839844 150.96875 L 200.59375 151.925781 L 201.5625 152.167969 L 201.320312 153.125 L 211.003906 155.527344 L 210.761719 156.484375 L 213.667969 157.207031 L 213.425781 158.164062 L 214.394531 158.40625 L 214.878906 156.488281 L 215.847656 156.726562 L 216.089844 155.769531 L 217.058594 156.007812 L 217.300781 155.050781 L 220.203125 155.769531 L 220.445312 154.8125 L 223.351562 155.53125 L 224.320312 155.769531 L 223.835938 157.691406 L 224.804688 157.929688 L 224.320312 159.847656 L 225.285156 160.089844 L 224.558594 162.964844 L 225.527344 163.207031 L 225.042969 165.125 L 226.011719 165.367188 L 225.769531 166.324219 L 226.738281 166.566406 L 226.496094 167.523438 L 232.304688 168.964844 L 232.546875 168.007812 L 233.515625 168.246094 L 233.757812 167.285156 L 237.628906 168.25 L 237.871094 167.289062 L 242.714844 168.488281 L 242.957031 167.53125 L 243.925781 167.769531 L 244.167969 166.8125 L 248.039062 167.773438 L 248.28125 166.8125 L 251.1875 167.535156 L 252.15625 163.699219 L 252.398438 162.738281 L 254.335938 163.21875 L 254.09375 164.179688 L 256.03125 164.660156 L 255.789062 165.617188 L 258.691406 166.339844 L 258.449219 167.296875 L 260.386719 167.777344 L 260.144531 168.738281 L 261.113281 168.980469 L 260.867188 169.9375 L 261.835938 170.179688 L 261.59375 171.136719 L 262.5625 171.378906 L 262.320312 172.335938 L 263.289062 172.578125 L 262.5625 175.453125 L 260.136719 185.046875 L 261.101562 185.289062 L 260.617188 187.207031 L 261.585938 187.445312 L 261.101562 189.363281 L 262.070312 189.605469 L 261.828125 190.5625 L 269.570312 192.488281 L 269.328125 193.445312 L 270.296875 193.6875 L 269.8125 195.605469 L 270.78125 195.84375 L 272.714844 196.324219 L 272.472656 197.285156 L 273.441406 197.523438 L 272.714844 200.402344 L 273.683594 200.644531 L 273.4375 201.601562 L 276.34375 202.324219 L 276.101562 203.28125 L 277.070312 203.523438 L 276.582031 205.441406 L 277.550781 205.683594 L 277.308594 206.640625 L 278.277344 206.882812 L 278.035156 207.839844 L 279.003906 208.082031 L 278.761719 209.039062 L 279.726562 209.28125 L 279.242188 211.199219 L 280.210938 211.4375 L 279.484375 214.316406 L 280.449219 214.558594 L 279.480469 218.394531 L 280.449219 218.632812 L 279.234375 223.429688 L 284.074219 224.632812 L 284.316406 223.671875 L 285.285156 223.914062 L 285.527344 222.953125 L 286.496094 223.195312 L 286.738281 222.234375 L 287.707031 222.476562 L 287.949219 221.515625 L 288.917969 221.757812 L 289.160156 220.796875 L 309.488281 225.847656 L 309.730469 224.886719 L 310.699219 225.128906 L 310.941406 224.171875 L 311.910156 224.410156 L 312.152344 223.453125 L 313.121094 223.691406 L 313.363281 222.734375 L 316.265625 223.453125 L 317.234375 223.695312 L 316.75 225.613281 L 315.78125 225.371094 L 314.566406 230.167969 L 315.535156 230.410156 L 314.5625 234.246094 L 313.597656 234.003906 L 313.109375 235.921875 L 312.144531 235.683594 L 311.65625 237.601562 L 310.691406 237.359375 L 310.445312 238.320312 L 308.511719 237.839844 L 308.269531 238.796875 L 307.300781 238.558594 L 307.058594 239.515625 L 306.089844 239.277344 L 305.847656 240.234375 L 306.816406 240.476562 L 305.84375 244.3125 L 303.910156 243.832031 L 303.664062 244.789062 L 301.730469 244.308594 L 301.488281 245.269531 L 300.519531 245.027344 L 300.035156 246.945312 L 301.003906 247.1875 L 300.273438 250.0625 L 301.242188 250.304688 L 301 251.261719 L 301.96875 251.503906 L 301.722656 252.464844 L 302.691406 252.703125 L 302.449219 253.664062 L 303.417969 253.902344 L 302.933594 255.820312 L 301.964844 255.582031 L 301.722656 256.539062 L 309.464844 258.464844 L 309.222656 259.421875 L 312.125 260.144531 L 311.640625 262.0625 L 315.511719 263.023438 L 315.269531 263.984375 L 319.140625 264.945312 L 318.898438 265.90625 L 319.863281 266.144531 L 319.378906 268.0625 L 320.347656 268.304688 L 320.105469 269.261719 L 319.136719 269.023438 L 318.410156 271.902344 L 319.375 272.140625 L 319.132812 273.101562 L 320.101562 273.339844 L 319.859375 274.300781 L 323.730469 275.261719 L 323.972656 274.304688 L 324.941406 274.542969 L 325.90625 274.785156 L 322.753906 287.253906 L 323.71875 287.492188 L 322.992188 290.371094 L 323.960938 290.609375 L 323.714844 291.570312 L 324.683594 291.808594 L 324.199219 293.730469 L 325.167969 293.96875 L 324.925781 294.929688 L 325.890625 295.167969 L 324.921875 299.003906 L 325.886719 299.246094 L 325.644531 300.203125 L 326.613281 300.445312 L 326.371094 301.40625 L 327.339844 301.644531 L 327.09375 302.605469 L 328.0625 302.84375 L 326.605469 308.597656 L 329.511719 309.320312 L 329.265625 310.28125 L 335.074219 311.722656 L 334.828125 312.683594 L 337.734375 313.40625 L 337.488281 314.363281 L 338.457031 314.605469 L 338.214844 315.5625 L 339.183594 315.804688 L 338.941406 316.761719 L 342.808594 317.726562 L 343.777344 317.964844 L 343.535156 318.925781 L 344.503906 319.164062 L 344.015625 321.082031 L 346.917969 321.804688 L 346.675781 322.765625 L 349.578125 323.488281 L 349.824219 322.527344 L 351.757812 323.007812 L 351.515625 323.96875 L 352.480469 324.207031 L 352.238281 325.167969 L 356.109375 326.128906 L 355.867188 327.089844 L 356.835938 327.332031 L 356.589844 328.289062 L 363.363281 329.972656 L 363.121094 330.933594 L 368.925781 332.378906 L 369.167969 331.417969 L 371.105469 331.898438 L 370.859375 332.859375 L 372.796875 333.339844 L 372.554688 334.300781 L 373.519531 334.539062 L 373.277344 335.5 L 375.210938 335.980469 L 374.726562 337.898438 L 376.660156 338.378906 L 376.417969 339.339844 L 375.453125 339.097656 L 374.964844 341.015625 L 374 340.777344 L 373.753906 341.734375 L 372.789062 341.492188 L 372.546875 342.453125 L 371.578125 342.210938 L 371.335938 343.171875 L 370.367188 342.929688 L 369.882812 344.847656 L 368.914062 344.609375 L 367.945312 344.367188 L 367.703125 345.328125 L 358.03125 342.917969 L 358.273438 341.960938 L 357.304688 341.71875 L 357.0625 342.679688 L 358.03125 342.917969 L 357.300781 345.796875 L 356.332031 345.554688 L 356.089844 346.515625 L 348.351562 344.589844 L 347.625 347.464844 L 346.65625 347.226562 L 346.898438 346.265625 L 343.027344 345.304688 L 342.785156 346.261719 L 338.917969 345.300781 L 339.160156 344.34375 L 336.257812 343.621094 L 336.5 342.660156 L 335.53125 342.421875 L 335.773438 341.460938 L 332.871094 340.738281 L 332.628906 341.699219 L 329.726562 340.976562 L 329.96875 340.019531 L 329 339.777344 L 329.246094 338.816406 L 324.40625 337.617188 L 324.648438 336.65625 L 322.714844 336.175781 L 322.472656 337.132812 L 320.535156 336.652344 L 320.292969 337.613281 L 316.425781 336.648438 L 316.179688 337.609375 L 303.601562 334.484375 L 303.847656 333.523438 L 299.007812 332.320312 L 298.523438 334.238281 L 297.554688 334 L 297.3125 334.957031 L 293.441406 333.996094 L 293.199219 334.957031 L 292.234375 334.714844 L 291.746094 336.632812 L 290.78125 336.394531 L 290.050781 339.269531 L 289.085938 339.03125 L 288.84375 339.988281 L 284.972656 339.027344 L 284.730469 339.988281 Z "/>
<path style="fill:none;stroke-width:0.75;stroke-linecap:round;stroke-linejoin:round;stroke:rgb(0%,0%,100%);stroke-opacity:1;stroke-miterlimit:10;" d="M 283.453125 294.277344 L 286.898438 297.144531 L 293.777344 298.234375 L 299.652344 300.507812 L 305.445312 304.132812 L 307.039062 305.898438 L 308.632812 306.996094 L 311.066406 307.753906 L 314.003906 309.183594 L 315.765625 310.53125 L 318.453125 313.984375 L 319.710938 316.261719 L 319.964844 317.863281 L 318.371094 321.992188 L 318.621094 323.507812 L 322.816406 328.226562 L 325.671875 329.910156 L 328.523438 331.339844 L 331.628906 331.761719 L 342.03125 331.929688 L 343.039062 332.433594 L 343.457031 333.613281 L 346.226562 337.070312 L 347.234375 337.996094 L 348.492188 338.5 L 348.996094 338.332031 L 349.5 337.40625 L 349.332031 335.300781 L 348.828125 334.542969 L 348.910156 333.445312 L 349.5 332.941406 L 351.175781 332.855469 L 355.289062 333.277344 L 356.964844 333.867188 L 364.683594 338.753906 L 369.886719 338.5 L 371.230469 337.910156 L 375.089844 337.996094 L 376.683594 338.417969 "/>
<path style="fill:none;stroke-width:0.75;stroke-linecap:round;stroke-linejoin:round;stroke:rgb(0%,0%,100%);stroke-opacity:1;stroke-miterlimit:10;" d="M 253.902344 265.476562 L 255.246094 265.476562 L 256.503906 266.0625 L 257.429688 267.074219 L 263.050781 270.019531 L 265.570312 270.777344 L 269.851562 272.460938 L 271.195312 273.726562 L 271.699219 273.808594 L 274.722656 277.769531 L 276.570312 281.472656 L 278.082031 284.085938 L 278.5 286.191406 L 279.425781 290.40625 L 280.683594 292.257812 L 283.453125 294.277344 "/>
<path style="fill:none;stroke-width:0.75;stroke-linecap:round;stroke-linejoin:round;stroke:rgb(0%,0%,100%);stroke-opacity:1;stroke-miterlimit:10;" d="M 219.738281 254.117188 L 221.5 254.792969 L 222.675781 254.792969 L 229.304688 252.089844 L 231.484375 251.667969 L 232.660156 252.089844 L 239.710938 251.578125 L 240.71875 252.167969 L 241.054688 253.265625 L 241.476562 253.601562 L 242.0625 256.042969 L 243.828125 258.65625 L 243.828125 258.992188 L 245.339844 262.023438 L 247.355469 263.960938 L 252.140625 265.308594 L 253.902344 265.476562 "/>
<path style="fill:none;stroke-width:0.75;stroke-linecap:round;stroke-linejoin:round;stroke:rgb(0%,0%,100%);stroke-opacity:1;stroke-miterlimit:10;" d="M 215.867188 237.605469 L 216.457031 242.15625 "/>
<path style="fill:none;stroke-width:0.75;stroke-linecap:round;stroke-linejoin:round;stroke:rgb(0%,0%,100%);stroke-opacity:1;stroke-miterlimit:10;" d="M 219.566406 251.761719 L 219.566406 252.519531 L 219.734375 252.769531 L 219.738281 254.117188 "/>
<path style="fill:none;stroke-width:0.75;stroke-linecap:round;stroke-linejoin:round;stroke:rgb(0%,0%,100%);stroke-opacity:1;stroke-miterlimit:10;" d="M 216.457031 242.15625 L 216.78125 242.617188 L 218.835938 245.695312 L 219.726562 251.382812 L 219.566406 251.761719 "/>
<path style="fill:none;stroke-width:0.75;stroke-linecap:round;stroke-linejoin:round;stroke:rgb(0%,0%,100%);stroke-opacity:1;stroke-miterlimit:10;" d="M 198.890625 211.078125 L 199.210938 211.332031 L 204.953125 213.234375 L 207.324219 217.152344 L 208.792969 224.652344 L 215.78125 237.425781 L 215.867188 237.605469 "/>
<path style="fill:none;stroke-width:0.75;stroke-linecap:round;stroke-linejoin:round;stroke:rgb(0%,0%,100%);stroke-opacity:1;stroke-miterlimit:10;" d="M 166.878906 176.472656 L 169.0625 176.722656 L 170.15625 177.734375 L 170.996094 179.25 L 170.996094 180.175781 L 172.089844 182.617188 L 172.679688 185.398438 L 175.203125 191.800781 L 175.875 192.894531 L 176.882812 193.652344 L 177.726562 195.503906 L 177.894531 196.429688 L 178.648438 197.1875 L 179.40625 199.378906 L 181.84375 202.832031 L 184.699219 205.359375 L 189.992188 207.714844 L 195.953125 209.730469 L 198.890625 211.078125 "/>
<path style="fill:none;stroke-width:0.75;stroke-linecap:round;stroke-linejoin:round;stroke:rgb(0%,0%,100%);stroke-opacity:1;stroke-miterlimit:10;" d="M 98.03125 102.894531 L 99.292969 104.496094 L 101.648438 106.09375 L 112.988281 109.707031 L 116.015625 110.964844 L 117.613281 112.144531 L 122.152344 118.796875 L 124.421875 121.152344 L 128.035156 122.75 L 131.144531 124.515625 L 132.152344 125.359375 L 132.074219 129.148438 L 132.496094 131.085938 L 136.113281 138.75 L 137.960938 140.941406 L 140.652344 142.707031 L 141.996094 144.136719 L 148.050781 152.222656 L 151.917969 158.707031 L 156.207031 164.09375 L 158.726562 166.535156 L 160.40625 167.207031 L 162.589844 167.628906 L 163.515625 168.132812 L 164.269531 169.058594 L 165.199219 174.113281 L 166.039062 175.125 L 166.878906 176.472656 "/>
<path style="fill:none;stroke-width:0.75;stroke-linecap:round;stroke-linejoin:round;stroke:rgb(0%,0%,100%);stroke-opacity:1;stroke-miterlimit:10;" d="M 299.300781 231.753906 L 298.378906 236.136719 L 292.757812 248.1875 L 291.832031 250.292969 L 290.910156 254.675781 L 289.65625 262.597656 L 289.320312 266.808594 L 288.734375 269.085938 L 285.128906 278.269531 L 284.039062 283.578125 L 283.453125 294.277344 "/>
<path style="fill:none;stroke-width:0.75;stroke-linecap:round;stroke-linejoin:round;stroke:rgb(0%,0%,100%);stroke-opacity:1;stroke-miterlimit:10;" d="M 237.742188 177.769531 L 238.414062 179.457031 L 239.007812 186.195312 L 240.519531 189.3125 L 242.789062 192.429688 L 242.957031 193.101562 L 243.796875 197.652344 L 243.800781 200.519531 L 243.464844 202.792969 L 243.550781 206.585938 L 243.96875 207.003906 L 246.15625 211.636719 L 246.238281 213.578125 L 245.652344 217.03125 L 245.234375 218.714844 L 245.152344 224.953125 L 245.40625 225.121094 L 245.574219 225.710938 L 247.171875 231.015625 L 248.097656 232.449219 L 248.601562 232.785156 L 248.601562 233.121094 L 249.691406 235.734375 L 250.195312 239.523438 L 250.617188 241.042969 L 251.960938 242.894531 L 252.886719 244.746094 L 254.480469 246.769531 L 254.566406 247.863281 L 253.980469 250.054688 L 253.058594 251.574219 L 253.644531 252.667969 L 254.316406 255.113281 L 253.144531 261.261719 L 253.230469 263.453125 L 253.902344 264.71875 L 253.902344 265.476562 "/>
<path style="fill:none;stroke-width:0.75;stroke-linecap:round;stroke-linejoin:round;stroke:rgb(0%,0%,100%);stroke-opacity:1;stroke-miterlimit:10;" d="M 138.445312 206.746094 L 139.285156 208.515625 L 141.304688 211.039062 L 141.304688 213.90625 L 141.726562 215.253906 L 143.574219 215.757812 L 146.683594 217.777344 L 147.605469 217.691406 L 149.703125 215.160156 L 149.53125 214.738281 L 149.785156 214.65625 L 149.867188 213.980469 L 150.957031 211.875 L 151.460938 209.765625 L 151.621094 204.375 L 151.957031 201.085938 L 151.949219 193.417969 L 152.199219 190.722656 L 152.78125 187.101562 L 153.621094 185.582031 L 155.296875 183.726562 L 160.082031 181.785156 L 160.835938 181.027344 L 161.757812 179.339844 L 162.851562 178.074219 L 164.445312 177.230469 L 166.878906 176.472656 "/>
<path style="fill:none;stroke-width:0.75;stroke-linecap:round;stroke-linejoin:round;stroke:rgb(0%,0%,100%);stroke-opacity:1;stroke-miterlimit:10;" d="M 156.765625 229.816406 L 156.683594 233.101562 L 156.265625 234.617188 L 155.765625 237.738281 L 151.152344 243.722656 L 149.476562 247.011719 L 148.890625 248.695312 L 148.472656 251.140625 L 148.8125 251.984375 L 149.988281 253.5 L 153.261719 256.359375 L 154.4375 256.863281 L 159.222656 256.1875 L 159.980469 256.859375 L 160.148438 258.039062 L 160.484375 258.125 L 160.734375 259.386719 L 161.574219 260.480469 L 163.675781 261.574219 L 164.09375 262.332031 L 164.855469 265.367188 L 165.609375 265.953125 L 167.203125 266.457031 L 169.472656 266.625 L 170.648438 267.886719 L 170.566406 270.332031 L 171.65625 271.847656 L 172.664062 272.605469 L 175.855469 273.023438 L 177.28125 272.179688 L 179.292969 270.410156 L 180.886719 269.648438 L 186.929688 268.800781 L 190.707031 271.410156 L 191.632812 271.242188 L 192.554688 269.554688 L 192.886719 267.703125 L 193.472656 266.777344 L 194.648438 265.761719 L 196.746094 265.59375 L 198.84375 266.351562 L 202.875 267.191406 L 204.21875 266.429688 L 205.894531 263.734375 L 206.3125 262.132812 L 207.316406 259.855469 L 209.332031 257.917969 L 211.007812 257.15625 L 218.308594 255.132812 L 219.738281 254.117188 "/>
</g>
</svg>
